<svg xmlns="http://www.w3.org/2000/svg" viewBox="0 0 300 200" shape-rendering="crispEdges" font-family="Trebuchet MS, Segoe UI, sans-serif"><defs><linearGradient id="warm" x1="0" y1="0" x2="0" y2="1"><stop offset="0" stop-color="#5a4216"/><stop offset="1" stop-color="#2a1d0a"/></linearGradient></defs><rect x="0" y="0" width="150" height="170" fill="#0c0a08"/><rect x="150" y="0" width="150" height="170" fill="url(#warm)"/><rect x="17" y="72" width="2" height="2" fill="#f4e9c0" opacity="0.9"/><rect x="78" y="77" width="2" height="2" fill="#f4e9c0" opacity="0.9"/><rect x="112" y="120" width="2" height="2" fill="#f4e9c0" opacity="0.9"/><rect x="123" y="16" width="2" height="2" fill="#f4e9c0" opacity="0.9"/><rect x="119" y="40" width="2" height="2" fill="#f4e9c0" opacity="0.9"/><rect x="26" y="108" width="2" height="2" fill="#f4e9c0" opacity="0.9"/><rect x="46" y="52" width="2" height="2" fill="#f4e9c0" opacity="0.9"/><rect x="137" y="92" width="2" height="2" fill="#f4e9c0" opacity="0.9"/><rect x="108" y="125" width="2" height="2" fill="#f4e9c0" opacity="0.9"/><rect x="74" y="24" width="2" height="2" fill="#f4e9c0" opacity="0.9"/><rect x="33" y="98" width="2" height="2" fill="#f4e9c0" opacity="0.9"/><rect x="114" y="79" width="2" height="2" fill="#f4e9c0" opacity="0.9"/><rect x="29" y="75" width="2" height="2" fill="#f4e9c0" opacity="0.9"/><rect x="68" y="64" width="2" height="2" fill="#f4e9c0" opacity="0.9"/><rect x="109" y="108" width="2" height="2" fill="#f4e9c0" opacity="0.9"/><rect x="29" y="26" width="2" height="2" fill="#f4e9c0" opacity="0.9"/><rect x="146" y="0" width="10" height="170" fill="#e8b647"/><rect x="140" y="0" width="6" height="170" fill="#e8b647" opacity="0.4"/><rect x="156" y="0" width="8" height="170" fill="#f4d489" opacity="0.4"/><circle cx="220" cy="70" r="30" fill="#f4d489" opacity="0.5"/><circle cx="220" cy="70" r="18" fill="#ffe9a8" opacity="0.8"/><circle cx="220" cy="70" r="9" fill="#fff6d8"/><rect x="0" y="170" width="300" height="30" fill="#0b0906" opacity="0.82"/><text x="10" y="190" fill="#e8b647" font-size="13" font-weight="bold">Day 1 · Light</text><text x="290" y="190" fill="#f4d489" font-size="14" text-anchor="end" direction="rtl">אוֹר</text></svg>