<svg xmlns="http://www.w3.org/2000/svg" viewBox="0 0 300 200" shape-rendering="crispEdges" font-family="Trebuchet MS, Segoe UI, sans-serif"><defs><linearGradient id="wabove" x1="0" y1="0" x2="0" y2="1"><stop offset="0" stop-color="#2f6e8a"/><stop offset="1" stop-color="#3f7e9a"/></linearGradient><linearGradient id="sky" x1="0" y1="0" x2="0" y2="1"><stop offset="0" stop-color="#bfe0e8"/><stop offset="1" stop-color="#8fc0cf"/></linearGradient><linearGradient id="wbelow" x1="0" y1="0" x2="0" y2="1"><stop offset="0" stop-color="#3f7e9a"/><stop offset="1" stop-color="#23506a"/></linearGradient></defs><rect x="0" y="0" width="300" height="58" fill="url(#wabove)"/><rect x="0" y="58" width="300" height="54" fill="url(#sky)"/><rect x="0" y="112" width="300" height="58" fill="url(#wbelow)"/><rect x="0" y="56" width="300" height="4" fill="#cfe6f2"/><rect x="0" y="110" width="300" height="4" fill="#cfe6f2"/><rect x="20" y="30" width="18" height="6" fill="#bfe0f0" opacity="0.6"/><rect x="64" y="30" width="18" height="6" fill="#bfe0f0" opacity="0.6"/><rect x="108" y="30" width="18" height="6" fill="#bfe0f0" opacity="0.6"/><rect x="152" y="30" width="18" height="6" fill="#bfe0f0" opacity="0.6"/><rect x="196" y="30" width="18" height="6" fill="#bfe0f0" opacity="0.6"/><rect x="240" y="30" width="18" height="6" fill="#bfe0f0" opacity="0.6"/><rect x="30" y="138" width="18" height="6" fill="#bfe0f0" opacity="0.6"/><rect x="74" y="138" width="18" height="6" fill="#bfe0f0" opacity="0.6"/><rect x="118" y="138" width="18" height="6" fill="#bfe0f0" opacity="0.6"/><rect x="162" y="138" width="18" height="6" fill="#bfe0f0" opacity="0.6"/><rect x="206" y="138" width="18" height="6" fill="#bfe0f0" opacity="0.6"/><rect x="250" y="138" width="18" height="6" fill="#bfe0f0" opacity="0.6"/><rect x="0" y="170" width="300" height="30" fill="#0b0906" opacity="0.82"/><text x="10" y="190" fill="#e8b647" font-size="13" font-weight="bold">Day 2 · Separation</text><text x="290" y="190" fill="#f4d489" font-size="14" text-anchor="end" direction="rtl">רָקִיעַ</text></svg>