<svg xmlns="http://www.w3.org/2000/svg" viewBox="0 0 300 200" shape-rendering="crispEdges" font-family="Trebuchet MS, Segoe UI, sans-serif"><defs><linearGradient id="sky3" x1="0" y1="0" x2="0" y2="1"><stop offset="0" stop-color="#bfd9c0"/><stop offset="1" stop-color="#8ab59a"/></linearGradient></defs><rect x="0" y="0" width="300" height="90" fill="url(#sky3)"/><rect x="0" y="90" width="300" height="80" fill="#3a6e8a"/><rect x="40" y="120" width="90" height="50" fill="#5a3f24"/><rect x="150" y="110" width="150" height="60" fill="#6b4a28"/><rect x="150" y="104" width="150" height="8" fill="#7a5a32"/><rect x="178" y="96" width="4" height="12" fill="#6b4a2a"/><rect x="175" y="86" width="10" height="12" fill="#2f7d3a"/><rect x="173" y="90" width="14" height="8" fill="#3a8a4a"/><rect x="213" y="100" width="4" height="12" fill="#6b4a2a"/><rect x="210" y="90" width="10" height="12" fill="#2f7d3a"/><rect x="208" y="94" width="14" height="8" fill="#3a8a4a"/><rect x="253" y="94" width="4" height="12" fill="#6b4a2a"/><rect x="250" y="84" width="10" height="12" fill="#2f7d3a"/><rect x="248" y="88" width="14" height="8" fill="#3a8a4a"/><rect x="165" y="128" width="8" height="8" fill="#3a8a4a"/><rect x="177" y="128" width="8" height="8" fill="#3a8a4a"/><rect x="189" y="128" width="8" height="8" fill="#3a8a4a"/><rect x="201" y="128" width="8" height="8" fill="#3a8a4a"/><rect x="213" y="128" width="8" height="8" fill="#3a8a4a"/><rect x="225" y="128" width="8" height="8" fill="#3a8a4a"/><rect x="237" y="128" width="8" height="8" fill="#3a8a4a"/><rect x="249" y="128" width="8" height="8" fill="#3a8a4a"/><rect x="261" y="128" width="8" height="8" fill="#3a8a4a"/><rect x="0" y="170" width="300" height="30" fill="#0b0906" opacity="0.82"/><text x="10" y="190" fill="#e8b647" font-size="13" font-weight="bold">Day 3 · Land &amp; Plants</text><text x="290" y="190" fill="#f4d489" font-size="14" text-anchor="end" direction="rtl">דֶּשֶׁא</text></svg>