<svg xmlns="http://www.w3.org/2000/svg" viewBox="0 0 300 200" shape-rendering="crispEdges" font-family="Trebuchet MS, Segoe UI, sans-serif"><defs><linearGradient id="dayh" x1="0" y1="0" x2="0" y2="1"><stop offset="0" stop-color="#7fb6cf"/><stop offset="1" stop-color="#bfe0ea"/></linearGradient></defs><rect x="0" y="0" width="150" height="170" fill="url(#dayh)"/><rect x="150" y="0" width="150" height="170" fill="#0d1430"/><rect x="255" y="81" width="2" height="2" fill="#f4e9c0" opacity="0.9"/><rect x="202" y="130" width="2" height="2" fill="#f4e9c0" opacity="0.9"/><rect x="177" y="29" width="2" height="2" fill="#f4e9c0" opacity="0.9"/><rect x="163" y="110" width="2" height="2" fill="#f4e9c0" opacity="0.9"/><rect x="230" y="130" width="2" height="2" fill="#f4e9c0" opacity="0.9"/><rect x="245" y="148" width="2" height="2" fill="#f4e9c0" opacity="0.9"/><rect x="233" y="60" width="2" height="2" fill="#f4e9c0" opacity="0.9"/><rect x="230" y="130" width="2" height="2" fill="#f4e9c0" opacity="0.9"/><rect x="256" y="19" width="2" height="2" fill="#f4e9c0" opacity="0.9"/><rect x="207" y="13" width="2" height="2" fill="#f4e9c0" opacity="0.9"/><rect x="169" y="32" width="2" height="2" fill="#f4e9c0" opacity="0.9"/><rect x="220" y="15" width="2" height="2" fill="#f4e9c0" opacity="0.9"/><rect x="259" y="69" width="2" height="2" fill="#f4e9c0" opacity="0.9"/><rect x="209" y="20" width="2" height="2" fill="#f4e9c0" opacity="0.9"/><rect x="222" y="23" width="2" height="2" fill="#f4e9c0" opacity="0.9"/><rect x="251" y="82" width="2" height="2" fill="#f4e9c0" opacity="0.9"/><rect x="266" y="119" width="2" height="2" fill="#f4e9c0" opacity="0.9"/><rect x="195" y="18" width="2" height="2" fill="#f4e9c0" opacity="0.9"/><rect x="194" y="69" width="2" height="2" fill="#f4e9c0" opacity="0.9"/><rect x="182" y="75" width="2" height="2" fill="#f4e9c0" opacity="0.9"/><rect x="238" y="21" width="2" height="2" fill="#f4e9c0" opacity="0.9"/><rect x="161" y="123" width="2" height="2" fill="#f4e9c0" opacity="0.9"/><circle cx="74" cy="70" r="26" fill="#f4d489" opacity="0.5"/><circle cx="74" cy="70" r="16" fill="#ffe08a"/><circle cx="74" cy="70" r="9" fill="#fff3c0"/><circle cx="225" cy="64" r="17" fill="#cfd6e6"/><circle cx="232" cy="60" r="15" fill="#0d1430"/><rect x="0" y="170" width="300" height="30" fill="#0b0906" opacity="0.82"/><text x="10" y="190" fill="#e8b647" font-size="13" font-weight="bold">Day 4 · Sun, Moon &amp; Stars</text><text x="290" y="190" fill="#f4d489" font-size="14" text-anchor="end" direction="rtl">מְאוֹרוֹת</text></svg>