<svg xmlns="http://www.w3.org/2000/svg" viewBox="0 0 300 200" shape-rendering="crispEdges" font-family="Trebuchet MS, Segoe UI, sans-serif"><defs><linearGradient id="sky5" x1="0" y1="0" x2="0" y2="1"><stop offset="0" stop-color="#cfe3ea"/><stop offset="1" stop-color="#9fc6d2"/></linearGradient><linearGradient id="sea5" x1="0" y1="0" x2="0" y2="1"><stop offset="0" stop-color="#2f7d8a"/><stop offset="1" stop-color="#1f5060"/></linearGradient></defs><rect x="0" y="0" width="300" height="96" fill="url(#sky5)"/><rect x="0" y="96" width="300" height="74" fill="url(#sea5)"/><rect x="40" y="26" width="7" height="3" fill="#2b2b2b"/><rect x="36" y="23" width="5" height="3" fill="#2b2b2b"/><rect x="46" y="23" width="5" height="3" fill="#2b2b2b"/><rect x="86" y="36" width="7" height="3" fill="#2b2b2b"/><rect x="82" y="33" width="5" height="3" fill="#2b2b2b"/><rect x="92" y="33" width="5" height="3" fill="#2b2b2b"/><rect x="132" y="26" width="7" height="3" fill="#2b2b2b"/><rect x="128" y="23" width="5" height="3" fill="#2b2b2b"/><rect x="138" y="23" width="5" height="3" fill="#2b2b2b"/><rect x="178" y="36" width="7" height="3" fill="#2b2b2b"/><rect x="174" y="33" width="5" height="3" fill="#2b2b2b"/><rect x="184" y="33" width="5" height="3" fill="#2b2b2b"/><rect x="224" y="26" width="7" height="3" fill="#2b2b2b"/><rect x="220" y="23" width="5" height="3" fill="#2b2b2b"/><rect x="230" y="23" width="5" height="3" fill="#2b2b2b"/><rect x="50" y="120" width="12" height="7" fill="#caa05a"/><rect x="61" y="121" width="5" height="5" fill="#caa05a"/><rect x="47" y="122" width="3" height="3" fill="#caa05a"/><rect x="120" y="140" width="12" height="7" fill="#b58a4a"/><rect x="131" y="141" width="5" height="5" fill="#b58a4a"/><rect x="117" y="142" width="3" height="3" fill="#b58a4a"/><rect x="200" y="116" width="12" height="7" fill="#caa05a"/><rect x="211" y="117" width="5" height="5" fill="#caa05a"/><rect x="197" y="118" width="3" height="3" fill="#caa05a"/><rect x="235" y="138" width="12" height="7" fill="#d9b36a"/><rect x="246" y="139" width="5" height="5" fill="#d9b36a"/><rect x="232" y="140" width="3" height="3" fill="#d9b36a"/><rect x="20" y="150" width="4" height="4" fill="#bfe0f0" opacity="0.5"/><rect x="80" y="150" width="4" height="4" fill="#bfe0f0" opacity="0.5"/><rect x="140" y="150" width="4" height="4" fill="#bfe0f0" opacity="0.5"/><rect x="200" y="150" width="4" height="4" fill="#bfe0f0" opacity="0.5"/><rect x="260" y="150" width="4" height="4" fill="#bfe0f0" opacity="0.5"/><rect x="0" y="170" width="300" height="30" fill="#0b0906" opacity="0.82"/><text x="10" y="190" fill="#e8b647" font-size="13" font-weight="bold">Day 5 · Birds &amp; Fish</text><text x="290" y="190" fill="#f4d489" font-size="14" text-anchor="end" direction="rtl">עוֹף וְדָגִים</text></svg>