<svg xmlns="http://www.w3.org/2000/svg" viewBox="0 0 300 200" shape-rendering="crispEdges" font-family="Trebuchet MS, Segoe UI, sans-serif"><defs><linearGradient id="sky6" x1="0" y1="0" x2="0" y2="1"><stop offset="0" stop-color="#cfd9b0"/><stop offset="1" stop-color="#9ab57a"/></linearGradient></defs><rect x="0" y="0" width="300" height="108" fill="url(#sky6)"/><rect x="0" y="108" width="300" height="62" fill="#3a6e34"/><rect x="43" y="80" width="4" height="12" fill="#6b4a2a"/><rect x="40" y="70" width="10" height="12" fill="#2f7d3a"/><rect x="38" y="74" width="14" height="8" fill="#3a8a4a"/><rect x="258" y="76" width="4" height="12" fill="#6b4a2a"/><rect x="255" y="66" width="10" height="12" fill="#2f7d3a"/><rect x="253" y="70" width="14" height="8" fill="#3a8a4a"/><rect x="137" y="74" width="8" height="10" fill="#caa06a"/><rect x="135" y="86" width="12" height="20" fill="#7a5a3a"/><rect x="136" y="106" width="4" height="8" fill="#6b4a2a"/><rect x="142" y="106" width="4" height="8" fill="#6b4a2a"/><rect x="40" y="124" width="22" height="12" fill="#9a6a3a"/><rect x="59" y="117" width="10" height="10" fill="#9a6a3a"/><rect x="42" y="136" width="4" height="7" fill="#9a6a3a"/><rect x="55" y="136" width="4" height="7" fill="#9a6a3a"/><rect x="210" y="128" width="22" height="12" fill="#b5895a"/><rect x="229" y="121" width="10" height="10" fill="#b5895a"/><rect x="212" y="140" width="4" height="7" fill="#b5895a"/><rect x="225" y="140" width="4" height="7" fill="#b5895a"/><rect x="20" y="150" width="8" height="8" fill="#2f7d3a" opacity="0.8"/><rect x="36" y="150" width="8" height="8" fill="#2f7d3a" opacity="0.8"/><rect x="52" y="150" width="8" height="8" fill="#2f7d3a" opacity="0.8"/><rect x="68" y="150" width="8" height="8" fill="#2f7d3a" opacity="0.8"/><rect x="84" y="150" width="8" height="8" fill="#2f7d3a" opacity="0.8"/><rect x="100" y="150" width="8" height="8" fill="#2f7d3a" opacity="0.8"/><rect x="116" y="150" width="8" height="8" fill="#2f7d3a" opacity="0.8"/><rect x="132" y="150" width="8" height="8" fill="#2f7d3a" opacity="0.8"/><rect x="148" y="150" width="8" height="8" fill="#2f7d3a" opacity="0.8"/><rect x="164" y="150" width="8" height="8" fill="#2f7d3a" opacity="0.8"/><rect x="180" y="150" width="8" height="8" fill="#2f7d3a" opacity="0.8"/><rect x="196" y="150" width="8" height="8" fill="#2f7d3a" opacity="0.8"/><rect x="212" y="150" width="8" height="8" fill="#2f7d3a" opacity="0.8"/><rect x="228" y="150" width="8" height="8" fill="#2f7d3a" opacity="0.8"/><rect x="244" y="150" width="8" height="8" fill="#2f7d3a" opacity="0.8"/><rect x="260" y="150" width="8" height="8" fill="#2f7d3a" opacity="0.8"/><rect x="0" y="170" width="300" height="30" fill="#0b0906" opacity="0.82"/><text x="10" y="190" fill="#e8b647" font-size="13" font-weight="bold">Day 6 · Adam &amp; Animals</text><text x="290" y="190" fill="#f4d489" font-size="14" text-anchor="end" direction="rtl">אָדָם</text></svg>