<svg xmlns="http://www.w3.org/2000/svg" viewBox="0 0 300 200" shape-rendering="crispEdges" font-family="Trebuchet MS, Segoe UI, sans-serif"><defs><linearGradient id="twilight" x1="0" y1="0" x2="0" y2="1"><stop offset="0" stop-color="#2a2350"/><stop offset="1" stop-color="#4a3a5a"/></linearGradient></defs><rect x="0" y="0" width="300" height="170" fill="url(#twilight)"/><rect x="84" y="70" width="2" height="2" fill="#f4e9c0" opacity="0.9"/><rect x="198" y="7" width="2" height="2" fill="#f4e9c0" opacity="0.9"/><rect x="181" y="9" width="2" height="2" fill="#f4e9c0" opacity="0.9"/><rect x="238" y="37" width="2" height="2" fill="#f4e9c0" opacity="0.9"/><rect x="155" y="22" width="2" height="2" fill="#f4e9c0" opacity="0.9"/><rect x="61" y="44" width="2" height="2" fill="#f4e9c0" opacity="0.9"/><rect x="258" y="11" width="2" height="2" fill="#f4e9c0" opacity="0.9"/><rect x="127" y="27" width="2" height="2" fill="#f4e9c0" opacity="0.9"/><rect x="15" y="6" width="2" height="2" fill="#f4e9c0" opacity="0.9"/><rect x="210" y="22" width="2" height="2" fill="#f4e9c0" opacity="0.9"/><rect x="94" y="63" width="2" height="2" fill="#f4e9c0" opacity="0.9"/><rect x="215" y="88" width="2" height="2" fill="#f4e9c0" opacity="0.9"/><rect x="161" y="32" width="2" height="2" fill="#f4e9c0" opacity="0.9"/><rect x="68" y="30" width="2" height="2" fill="#f4e9c0" opacity="0.9"/><rect x="120" y="120" width="10" height="38" fill="#e7d9b0"/><rect x="122" y="108" width="6" height="12" fill="#d9831f"/><rect x="123" y="100" width="4" height="10" fill="#ffd27a"/><circle cx="125" cy="102" r="7" fill="#f4d489" opacity="0.4"/><rect x="170" y="120" width="10" height="38" fill="#e7d9b0"/><rect x="172" y="108" width="6" height="12" fill="#d9831f"/><rect x="173" y="100" width="4" height="10" fill="#ffd27a"/><circle cx="175" cy="102" r="7" fill="#f4d489" opacity="0.4"/><circle cx="145" cy="118" r="55" fill="#e8b647" opacity="0.1"/><circle cx="145" cy="118" r="34" fill="#f4d489" opacity="0.1"/><rect x="0" y="170" width="300" height="30" fill="#0b0906" opacity="0.82"/><text x="10" y="190" fill="#e8b647" font-size="13" font-weight="bold">Day 7 · Shabbat</text><text x="290" y="190" fill="#f4d489" font-size="14" text-anchor="end" direction="rtl">שַׁבָּת</text></svg>