<svg xmlns="http://www.w3.org/2000/svg" viewBox="0 0 300 200" shape-rendering="crispEdges" font-family="Trebuchet MS, Segoe UI, sans-serif"><defs><linearGradient id="g" x1="0" y1="0" x2="0" y2="1"><stop offset="0" stop-color="#46566a"/><stop offset="1" stop-color="#2a3340"/></linearGradient></defs><rect x="0" y="0" width="300" height="100" fill="url(#g)"/><rect x="0" y="140" width="300" height="60" fill="#5a3f28"/><rect x="0" y="96" width="300" height="8" fill="#5e1414"/><rect x="0" y="97" width="300" height="8" fill="#7e1f1f"/><rect x="0" y="98" width="300" height="8" fill="#5e1414"/><rect x="0" y="96" width="300" height="8" fill="#7e1f1f"/><rect x="0" y="97" width="300" height="8" fill="#5e1414"/><rect x="0" y="98" width="300" height="8" fill="#7e1f1f"/><rect x="70" y="104" width="5" height="5" fill="#3a3a3a"/><rect x="75" y="104" width="5" height="5" fill="#3a3a3a"/><rect x="85" y="104" width="5" height="5" fill="#3a3a3a"/><rect x="65" y="109" width="5" height="5" fill="#3a3a3a"/><rect x="70" y="109" width="5" height="5" fill="#3a3a3a"/><rect x="75" y="109" width="5" height="5" fill="#3a3a3a"/><rect x="80" y="109" width="5" height="5" fill="#3a3a3a"/><rect x="85" y="109" width="5" height="5" fill="#3a3a3a"/><rect x="60" y="114" width="5" height="5" fill="#3a3a3a"/><rect x="65" y="114" width="5" height="5" fill="#cccccc"/><rect x="70" y="114" width="5" height="5" fill="#3a3a3a"/><rect x="75" y="114" width="5" height="5" fill="#3a3a3a"/><rect x="80" y="114" width="5" height="5" fill="#3a3a3a"/><rect x="65" y="119" width="5" height="5" fill="#3a3a3a"/><rect x="70" y="119" width="5" height="5" fill="#3a3a3a"/><rect x="75" y="119" width="5" height="5" fill="#3a3a3a"/><rect x="80" y="119" width="5" height="5" fill="#3a3a3a"/><rect x="85" y="119" width="5" height="5" fill="#3a3a3a"/><rect x="70" y="124" width="5" height="5" fill="#3a3a3a"/><rect x="75" y="124" width="5" height="5" fill="#3a3a3a"/><rect x="85" y="124" width="5" height="5" fill="#3a3a3a"/><rect x="160" y="118" width="5" height="5" fill="#2f2f2f"/><rect x="165" y="118" width="5" height="5" fill="#2f2f2f"/><rect x="175" y="118" width="5" height="5" fill="#2f2f2f"/><rect x="155" y="123" width="5" height="5" fill="#2f2f2f"/><rect x="160" y="123" width="5" height="5" fill="#2f2f2f"/><rect x="165" y="123" width="5" height="5" fill="#2f2f2f"/><rect x="170" y="123" width="5" height="5" fill="#2f2f2f"/><rect x="175" y="123" width="5" height="5" fill="#2f2f2f"/><rect x="150" y="128" width="5" height="5" fill="#2f2f2f"/><rect x="155" y="128" width="5" height="5" fill="#cccccc"/><rect x="160" y="128" width="5" height="5" fill="#2f2f2f"/><rect x="165" y="128" width="5" height="5" fill="#2f2f2f"/><rect x="170" y="128" width="5" height="5" fill="#2f2f2f"/><rect x="155" y="133" width="5" height="5" fill="#2f2f2f"/><rect x="160" y="133" width="5" height="5" fill="#2f2f2f"/><rect x="165" y="133" width="5" height="5" fill="#2f2f2f"/><rect x="170" y="133" width="5" height="5" fill="#2f2f2f"/><rect x="175" y="133" width="5" height="5" fill="#2f2f2f"/><rect x="160" y="138" width="5" height="5" fill="#2f2f2f"/><rect x="165" y="138" width="5" height="5" fill="#2f2f2f"/><rect x="175" y="138" width="5" height="5" fill="#2f2f2f"/><rect x="230" y="100" width="5" height="5" fill="#444"/><rect x="235" y="100" width="5" height="5" fill="#444"/><rect x="245" y="100" width="5" height="5" fill="#444"/><rect x="225" y="105" width="5" height="5" fill="#444"/><rect x="230" y="105" width="5" height="5" fill="#444"/><rect x="235" y="105" width="5" height="5" fill="#444"/><rect x="240" y="105" width="5" height="5" fill="#444"/><rect x="245" y="105" width="5" height="5" fill="#444"/><rect x="220" y="110" width="5" height="5" fill="#444"/><rect x="225" y="110" width="5" height="5" fill="#ddd"/><rect x="230" y="110" width="5" height="5" fill="#444"/><rect x="235" y="110" width="5" height="5" fill="#444"/><rect x="240" y="110" width="5" height="5" fill="#444"/><rect x="225" y="115" width="5" height="5" fill="#444"/><rect x="230" y="115" width="5" height="5" fill="#444"/><rect x="235" y="115" width="5" height="5" fill="#444"/><rect x="240" y="115" width="5" height="5" fill="#444"/><rect x="245" y="115" width="5" height="5" fill="#444"/><rect x="230" y="120" width="5" height="5" fill="#444"/><rect x="235" y="120" width="5" height="5" fill="#444"/><rect x="245" y="120" width="5" height="5" fill="#444"/><rect x="250" y="150" width="14" height="18" fill="#8a5a32"/><rect x="254" y="146" width="6" height="6" fill="#8a5a32"/><rect x="0" y="170" width="300" height="30" fill="#0b0906" opacity="0.80"/><text x="10" y="190" fill="#e8b647" font-size="13" font-weight="bold">#1 · Blood — Dam</text><text x="290" y="190" fill="#f4d489" font-size="14" text-anchor="end" direction="rtl">דָּם</text></svg>