<svg xmlns="http://www.w3.org/2000/svg" viewBox="0 0 300 200" shape-rendering="crispEdges" font-family="Trebuchet MS, Segoe UI, sans-serif"><defs><linearGradient id="g" x1="0" y1="0" x2="0" y2="1"><stop offset="0" stop-color="#4a6e4a"/><stop offset="1" stop-color="#2a3a2a"/></linearGradient></defs><rect x="0" y="0" width="300" height="150" fill="url(#g)"/><rect x="0" y="150" width="300" height="50" fill="#3a5a2a"/><rect x="20" y="110" width="40" height="40" fill="#3a2a1f"/><rect x="28" y="122" width="24" height="22" fill="#d9831f"/><rect x="28" y="122" width="24" height="6" fill="#ffd27a"/><rect x="210" y="150" width="70" height="18" fill="#7a5a3a"/><rect x="210" y="144" width="70" height="8" fill="#cdb38a"/><rect x="24" y="60" width="4" height="4" fill="#2f6e3a"/><rect x="36" y="60" width="4" height="4" fill="#2f6e3a"/><rect x="20" y="64" width="4" height="4" fill="#2f6e3a"/><rect x="24" y="64" width="4" height="4" fill="#3f8a4a"/><rect x="36" y="64" width="4" height="4" fill="#3f8a4a"/><rect x="40" y="64" width="4" height="4" fill="#2f6e3a"/><rect x="20" y="68" width="4" height="4" fill="#2f6e3a"/><rect x="24" y="68" width="4" height="4" fill="#3f8a4a"/><rect x="28" y="68" width="4" height="4" fill="#3f8a4a"/><rect x="32" y="68" width="4" height="4" fill="#3f8a4a"/><rect x="36" y="68" width="4" height="4" fill="#3f8a4a"/><rect x="40" y="68" width="4" height="4" fill="#2f6e3a"/><rect x="20" y="72" width="4" height="4" fill="#3f8a4a"/><rect x="24" y="72" width="4" height="4" fill="#3f8a4a"/><rect x="28" y="72" width="4" height="4" fill="#ffffff"/><rect x="32" y="72" width="4" height="4" fill="#ffffff"/><rect x="36" y="72" width="4" height="4" fill="#3f8a4a"/><rect x="40" y="72" width="4" height="4" fill="#3f8a4a"/><rect x="20" y="76" width="4" height="4" fill="#2f6e3a"/><rect x="24" y="76" width="4" height="4" fill="#3f8a4a"/><rect x="28" y="76" width="4" height="4" fill="#3f8a4a"/><rect x="32" y="76" width="4" height="4" fill="#3f8a4a"/><rect x="36" y="76" width="4" height="4" fill="#3f8a4a"/><rect x="40" y="76" width="4" height="4" fill="#2f6e3a"/><rect x="24" y="80" width="4" height="4" fill="#2f6e3a"/><rect x="28" y="80" width="4" height="4" fill="#3f8a4a"/><rect x="32" y="80" width="4" height="4" fill="#3f8a4a"/><rect x="36" y="80" width="4" height="4" fill="#2f6e3a"/><rect x="74" y="120" width="4" height="4" fill="#2f6e3a"/><rect x="86" y="120" width="4" height="4" fill="#2f6e3a"/><rect x="70" y="124" width="4" height="4" fill="#2f6e3a"/><rect x="74" y="124" width="4" height="4" fill="#3f8a4a"/><rect x="86" y="124" width="4" height="4" fill="#3f8a4a"/><rect x="90" y="124" width="4" height="4" fill="#2f6e3a"/><rect x="70" y="128" width="4" height="4" fill="#2f6e3a"/><rect x="74" y="128" width="4" height="4" fill="#3f8a4a"/><rect x="78" y="128" width="4" height="4" fill="#3f8a4a"/><rect x="82" y="128" width="4" height="4" fill="#3f8a4a"/><rect x="86" y="128" width="4" height="4" fill="#3f8a4a"/><rect x="90" y="128" width="4" height="4" fill="#2f6e3a"/><rect x="70" y="132" width="4" height="4" fill="#3f8a4a"/><rect x="74" y="132" width="4" height="4" fill="#3f8a4a"/><rect x="78" y="132" width="4" height="4" fill="#ffffff"/><rect x="82" y="132" width="4" height="4" fill="#ffffff"/><rect x="86" y="132" width="4" height="4" fill="#3f8a4a"/><rect x="90" y="132" width="4" height="4" fill="#3f8a4a"/><rect x="70" y="136" width="4" height="4" fill="#2f6e3a"/><rect x="74" y="136" width="4" height="4" fill="#3f8a4a"/><rect x="78" y="136" width="4" height="4" fill="#3f8a4a"/><rect x="82" y="136" width="4" height="4" fill="#3f8a4a"/><rect x="86" y="136" width="4" height="4" fill="#3f8a4a"/><rect x="90" y="136" width="4" height="4" fill="#2f6e3a"/><rect x="74" y="140" width="4" height="4" fill="#2f6e3a"/><rect x="78" y="140" width="4" height="4" fill="#3f8a4a"/><rect x="82" y="140" width="4" height="4" fill="#3f8a4a"/><rect x="86" y="140" width="4" height="4" fill="#2f6e3a"/><rect x="134" y="90" width="4" height="4" fill="#2f6e3a"/><rect x="146" y="90" width="4" height="4" fill="#2f6e3a"/><rect x="130" y="94" width="4" height="4" fill="#2f6e3a"/><rect x="134" y="94" width="4" height="4" fill="#3f8a4a"/><rect x="146" y="94" width="4" height="4" fill="#3f8a4a"/><rect x="150" y="94" width="4" height="4" fill="#2f6e3a"/><rect x="130" y="98" width="4" height="4" fill="#2f6e3a"/><rect x="134" y="98" width="4" height="4" fill="#3f8a4a"/><rect x="138" y="98" width="4" height="4" fill="#3f8a4a"/><rect x="142" y="98" width="4" height="4" fill="#3f8a4a"/><rect x="146" y="98" width="4" height="4" fill="#3f8a4a"/><rect x="150" y="98" width="4" height="4" fill="#2f6e3a"/><rect x="130" y="102" width="4" height="4" fill="#3f8a4a"/><rect x="134" y="102" width="4" height="4" fill="#3f8a4a"/><rect x="138" y="102" width="4" height="4" fill="#ffffff"/><rect x="142" y="102" width="4" height="4" fill="#ffffff"/><rect x="146" y="102" width="4" height="4" fill="#3f8a4a"/><rect x="150" y="102" width="4" height="4" fill="#3f8a4a"/><rect x="130" y="106" width="4" height="4" fill="#2f6e3a"/><rect x="134" y="106" width="4" height="4" fill="#3f8a4a"/><rect x="138" y="106" width="4" height="4" fill="#3f8a4a"/><rect x="142" y="106" width="4" height="4" fill="#3f8a4a"/><rect x="146" y="106" width="4" height="4" fill="#3f8a4a"/><rect x="150" y="106" width="4" height="4" fill="#2f6e3a"/><rect x="134" y="110" width="4" height="4" fill="#2f6e3a"/><rect x="138" y="110" width="4" height="4" fill="#3f8a4a"/><rect x="142" y="110" width="4" height="4" fill="#3f8a4a"/><rect x="146" y="110" width="4" height="4" fill="#2f6e3a"/><rect x="184" y="140" width="4" height="4" fill="#2f6e3a"/><rect x="196" y="140" width="4" height="4" fill="#2f6e3a"/><rect x="180" y="144" width="4" height="4" fill="#2f6e3a"/><rect x="184" y="144" width="4" height="4" fill="#3f8a4a"/><rect x="196" y="144" width="4" height="4" fill="#3f8a4a"/><rect x="200" y="144" width="4" height="4" fill="#2f6e3a"/><rect x="180" y="148" width="4" height="4" fill="#2f6e3a"/><rect x="184" y="148" width="4" height="4" fill="#3f8a4a"/><rect x="188" y="148" width="4" height="4" fill="#3f8a4a"/><rect x="192" y="148" width="4" height="4" fill="#3f8a4a"/><rect x="196" y="148" width="4" height="4" fill="#3f8a4a"/><rect x="200" y="148" width="4" height="4" fill="#2f6e3a"/><rect x="180" y="152" width="4" height="4" fill="#3f8a4a"/><rect x="184" y="152" width="4" height="4" fill="#3f8a4a"/><rect x="188" y="152" width="4" height="4" fill="#ffffff"/><rect x="192" y="152" width="4" height="4" fill="#ffffff"/><rect x="196" y="152" width="4" height="4" fill="#3f8a4a"/><rect x="200" y="152" width="4" height="4" fill="#3f8a4a"/><rect x="180" y="156" width="4" height="4" fill="#2f6e3a"/><rect x="184" y="156" width="4" height="4" fill="#3f8a4a"/><rect x="188" y="156" width="4" height="4" fill="#3f8a4a"/><rect x="192" y="156" width="4" height="4" fill="#3f8a4a"/><rect x="196" y="156" width="4" height="4" fill="#3f8a4a"/><rect x="200" y="156" width="4" height="4" fill="#2f6e3a"/><rect x="184" y="160" width="4" height="4" fill="#2f6e3a"/><rect x="188" y="160" width="4" height="4" fill="#3f8a4a"/><rect x="192" y="160" width="4" height="4" fill="#3f8a4a"/><rect x="196" y="160" width="4" height="4" fill="#2f6e3a"/><rect x="234" y="70" width="4" height="4" fill="#2f6e3a"/><rect x="246" y="70" width="4" height="4" fill="#2f6e3a"/><rect x="230" y="74" width="4" height="4" fill="#2f6e3a"/><rect x="234" y="74" width="4" height="4" fill="#3f8a4a"/><rect x="246" y="74" width="4" height="4" fill="#3f8a4a"/><rect x="250" y="74" width="4" height="4" fill="#2f6e3a"/><rect x="230" y="78" width="4" height="4" fill="#2f6e3a"/><rect x="234" y="78" width="4" height="4" fill="#3f8a4a"/><rect x="238" y="78" width="4" height="4" fill="#3f8a4a"/><rect x="242" y="78" width="4" height="4" fill="#3f8a4a"/><rect x="246" y="78" width="4" height="4" fill="#3f8a4a"/><rect x="250" y="78" width="4" height="4" fill="#2f6e3a"/><rect x="230" y="82" width="4" height="4" fill="#3f8a4a"/><rect x="234" y="82" width="4" height="4" fill="#3f8a4a"/><rect x="238" y="82" width="4" height="4" fill="#ffffff"/><rect x="242" y="82" width="4" height="4" fill="#ffffff"/><rect x="246" y="82" width="4" height="4" fill="#3f8a4a"/><rect x="250" y="82" width="4" height="4" fill="#3f8a4a"/><rect x="230" y="86" width="4" height="4" fill="#2f6e3a"/><rect x="234" y="86" width="4" height="4" fill="#3f8a4a"/><rect x="238" y="86" width="4" height="4" fill="#3f8a4a"/><rect x="242" y="86" width="4" height="4" fill="#3f8a4a"/><rect x="246" y="86" width="4" height="4" fill="#3f8a4a"/><rect x="250" y="86" width="4" height="4" fill="#2f6e3a"/><rect x="234" y="90" width="4" height="4" fill="#2f6e3a"/><rect x="238" y="90" width="4" height="4" fill="#3f8a4a"/><rect x="242" y="90" width="4" height="4" fill="#3f8a4a"/><rect x="246" y="90" width="4" height="4" fill="#2f6e3a"/><rect x="254" y="130" width="4" height="4" fill="#2f6e3a"/><rect x="266" y="130" width="4" height="4" fill="#2f6e3a"/><rect x="250" y="134" width="4" height="4" fill="#2f6e3a"/><rect x="254" y="134" width="4" height="4" fill="#3f8a4a"/><rect x="266" y="134" width="4" height="4" fill="#3f8a4a"/><rect x="270" y="134" width="4" height="4" fill="#2f6e3a"/><rect x="250" y="138" width="4" height="4" fill="#2f6e3a"/><rect x="254" y="138" width="4" height="4" fill="#3f8a4a"/><rect x="258" y="138" width="4" height="4" fill="#3f8a4a"/><rect x="262" y="138" width="4" height="4" fill="#3f8a4a"/><rect x="266" y="138" width="4" height="4" fill="#3f8a4a"/><rect x="270" y="138" width="4" height="4" fill="#2f6e3a"/><rect x="250" y="142" width="4" height="4" fill="#3f8a4a"/><rect x="254" y="142" width="4" height="4" fill="#3f8a4a"/><rect x="258" y="142" width="4" height="4" fill="#ffffff"/><rect x="262" y="142" width="4" height="4" fill="#ffffff"/><rect x="266" y="142" width="4" height="4" fill="#3f8a4a"/><rect x="270" y="142" width="4" height="4" fill="#3f8a4a"/><rect x="250" y="146" width="4" height="4" fill="#2f6e3a"/><rect x="254" y="146" width="4" height="4" fill="#3f8a4a"/><rect x="258" y="146" width="4" height="4" fill="#3f8a4a"/><rect x="262" y="146" width="4" height="4" fill="#3f8a4a"/><rect x="266" y="146" width="4" height="4" fill="#3f8a4a"/><rect x="270" y="146" width="4" height="4" fill="#2f6e3a"/><rect x="254" y="150" width="4" height="4" fill="#2f6e3a"/><rect x="258" y="150" width="4" height="4" fill="#3f8a4a"/><rect x="262" y="150" width="4" height="4" fill="#3f8a4a"/><rect x="266" y="150" width="4" height="4" fill="#2f6e3a"/><rect x="99" y="150" width="4" height="4" fill="#2f6e3a"/><rect x="111" y="150" width="4" height="4" fill="#2f6e3a"/><rect x="95" y="154" width="4" height="4" fill="#2f6e3a"/><rect x="99" y="154" width="4" height="4" fill="#3f8a4a"/><rect x="111" y="154" width="4" height="4" fill="#3f8a4a"/><rect x="115" y="154" width="4" height="4" fill="#2f6e3a"/><rect x="95" y="158" width="4" height="4" fill="#2f6e3a"/><rect x="99" y="158" width="4" height="4" fill="#3f8a4a"/><rect x="103" y="158" width="4" height="4" fill="#3f8a4a"/><rect x="107" y="158" width="4" height="4" fill="#3f8a4a"/><rect x="111" y="158" width="4" height="4" fill="#3f8a4a"/><rect x="115" y="158" width="4" height="4" fill="#2f6e3a"/><rect x="95" y="162" width="4" height="4" fill="#3f8a4a"/><rect x="99" y="162" width="4" height="4" fill="#3f8a4a"/><rect x="103" y="162" width="4" height="4" fill="#ffffff"/><rect x="107" y="162" width="4" height="4" fill="#ffffff"/><rect x="111" y="162" width="4" height="4" fill="#3f8a4a"/><rect x="115" y="162" width="4" height="4" fill="#3f8a4a"/><rect x="95" y="166" width="4" height="4" fill="#2f6e3a"/><rect x="99" y="166" width="4" height="4" fill="#3f8a4a"/><rect x="103" y="166" width="4" height="4" fill="#3f8a4a"/><rect x="107" y="166" width="4" height="4" fill="#3f8a4a"/><rect x="111" y="166" width="4" height="4" fill="#3f8a4a"/><rect x="115" y="166" width="4" height="4" fill="#2f6e3a"/><rect x="99" y="170" width="4" height="4" fill="#2f6e3a"/><rect x="103" y="170" width="4" height="4" fill="#3f8a4a"/><rect x="107" y="170" width="4" height="4" fill="#3f8a4a"/><rect x="111" y="170" width="4" height="4" fill="#2f6e3a"/><rect x="164" y="50" width="4" height="4" fill="#2f6e3a"/><rect x="176" y="50" width="4" height="4" fill="#2f6e3a"/><rect x="160" y="54" width="4" height="4" fill="#2f6e3a"/><rect x="164" y="54" width="4" height="4" fill="#3f8a4a"/><rect x="176" y="54" width="4" height="4" fill="#3f8a4a"/><rect x="180" y="54" width="4" height="4" fill="#2f6e3a"/><rect x="160" y="58" width="4" height="4" fill="#2f6e3a"/><rect x="164" y="58" width="4" height="4" fill="#3f8a4a"/><rect x="168" y="58" width="4" height="4" fill="#3f8a4a"/><rect x="172" y="58" width="4" height="4" fill="#3f8a4a"/><rect x="176" y="58" width="4" height="4" fill="#3f8a4a"/><rect x="180" y="58" width="4" height="4" fill="#2f6e3a"/><rect x="160" y="62" width="4" height="4" fill="#3f8a4a"/><rect x="164" y="62" width="4" height="4" fill="#3f8a4a"/><rect x="168" y="62" width="4" height="4" fill="#ffffff"/><rect x="172" y="62" width="4" height="4" fill="#ffffff"/><rect x="176" y="62" width="4" height="4" fill="#3f8a4a"/><rect x="180" y="62" width="4" height="4" fill="#3f8a4a"/><rect x="160" y="66" width="4" height="4" fill="#2f6e3a"/><rect x="164" y="66" width="4" height="4" fill="#3f8a4a"/><rect x="168" y="66" width="4" height="4" fill="#3f8a4a"/><rect x="172" y="66" width="4" height="4" fill="#3f8a4a"/><rect x="176" y="66" width="4" height="4" fill="#3f8a4a"/><rect x="180" y="66" width="4" height="4" fill="#2f6e3a"/><rect x="164" y="70" width="4" height="4" fill="#2f6e3a"/><rect x="168" y="70" width="4" height="4" fill="#3f8a4a"/><rect x="172" y="70" width="4" height="4" fill="#3f8a4a"/><rect x="176" y="70" width="4" height="4" fill="#2f6e3a"/><rect x="0" y="170" width="300" height="30" fill="#0b0906" opacity="0.80"/><text x="10" y="190" fill="#e8b647" font-size="13" font-weight="bold">#2 · Frogs — Tzefardea</text><text x="290" y="190" fill="#f4d489" font-size="14" text-anchor="end" direction="rtl">צְפַרְדֵּעַ</text></svg>