<svg xmlns="http://www.w3.org/2000/svg" viewBox="0 0 300 200" shape-rendering="crispEdges" font-family="Trebuchet MS, Segoe UI, sans-serif"><defs><linearGradient id="g" x1="0" y1="0" x2="0" y2="1"><stop offset="0" stop-color="#caa45a"/><stop offset="1" stop-color="#8a6a32"/></linearGradient></defs><rect x="0" y="0" width="300" height="100" fill="url(#g)"/><rect x="0" y="100" width="300" height="100" fill="#caa15a"/><rect x="255" y="96" width="45" height="60" fill="#244a2e"/><rect x="270" y="110" width="4" height="4" fill="#6b4a2a"/><rect x="274" y="110" width="4" height="4" fill="#6b4a2a"/><rect x="278" y="110" width="4" height="4" fill="#6b4a2a"/><rect x="266" y="114" width="4" height="4" fill="#6b4a2a"/><rect x="270" y="114" width="4" height="4" fill="#6b4a2a"/><rect x="274" y="114" width="4" height="4" fill="#6b4a2a"/><rect x="278" y="114" width="4" height="4" fill="#6b4a2a"/><rect x="282" y="114" width="4" height="4" fill="#6b4a2a"/><rect x="262" y="118" width="4" height="4" fill="#6b4a2a"/><rect x="266" y="118" width="4" height="4" fill="#6b4a2a"/><rect x="270" y="118" width="4" height="4" fill="#6b4a2a"/><rect x="274" y="118" width="4" height="4" fill="#6b4a2a"/><rect x="278" y="118" width="4" height="4" fill="#6b4a2a"/><rect x="282" y="118" width="4" height="4" fill="#6b4a2a"/><rect x="286" y="118" width="4" height="4" fill="#6b4a2a"/><rect x="262" y="122" width="4" height="4" fill="#caa86a"/><rect x="270" y="122" width="4" height="4" fill="#caa86a"/><rect x="274" y="122" width="4" height="4" fill="#caa86a"/><rect x="278" y="122" width="4" height="4" fill="#caa86a"/><rect x="286" y="122" width="4" height="4" fill="#caa86a"/><rect x="262" y="126" width="4" height="4" fill="#caa86a"/><rect x="270" y="126" width="4" height="4" fill="#caa86a"/><rect x="274" y="126" width="4" height="4" fill="#caa86a"/><rect x="278" y="126" width="4" height="4" fill="#caa86a"/><rect x="286" y="126" width="4" height="4" fill="#caa86a"/><rect x="262" y="130" width="4" height="4" fill="#caa86a"/><rect x="270" y="130" width="4" height="4" fill="#caa86a"/><rect x="274" y="130" width="4" height="4" fill="#3a2a1a"/><rect x="278" y="130" width="4" height="4" fill="#caa86a"/><rect x="286" y="130" width="4" height="4" fill="#caa86a"/><rect x="40" y="120" width="26" height="14" fill="#b5762f"/><rect x="62" y="112" width="12" height="12" fill="#b5762f"/><rect x="42" y="134" width="5" height="8" fill="#b5762f"/><rect x="58" y="134" width="5" height="8" fill="#b5762f"/><rect x="70" y="116" width="4" height="4" fill="#000"/><rect x="150" y="130" width="26" height="14" fill="#8a5a2f"/><rect x="172" y="122" width="12" height="12" fill="#8a5a2f"/><rect x="152" y="144" width="5" height="8" fill="#8a5a2f"/><rect x="168" y="144" width="5" height="8" fill="#8a5a2f"/><rect x="180" y="126" width="4" height="4" fill="#000"/><rect x="210" y="118" width="26" height="14" fill="#a06a3a"/><rect x="232" y="110" width="12" height="12" fill="#a06a3a"/><rect x="212" y="132" width="5" height="8" fill="#a06a3a"/><rect x="228" y="132" width="5" height="8" fill="#a06a3a"/><rect x="240" y="114" width="4" height="4" fill="#000"/><rect x="0" y="170" width="300" height="30" fill="#0b0906" opacity="0.80"/><text x="10" y="190" fill="#e8b647" font-size="13" font-weight="bold">#4 · Wild Animals — Arov</text><text x="290" y="190" fill="#f4d489" font-size="14" text-anchor="end" direction="rtl">עָרוֹב</text></svg>