<svg xmlns="http://www.w3.org/2000/svg" viewBox="0 0 300 200" shape-rendering="crispEdges" font-family="Trebuchet MS, Segoe UI, sans-serif"><defs><linearGradient id="g" x1="0" y1="0" x2="0" y2="1"><stop offset="0" stop-color="#5a6a78"/><stop offset="1" stop-color="#3a4452"/></linearGradient></defs><rect x="0" y="0" width="300" height="120" fill="url(#g)"/><rect x="0" y="120" width="300" height="80" fill="#4a5a32"/><rect x="150" y="100" width="3" height="70" fill="#e8b647" opacity="0.5"/><rect x="30" y="140" width="30" height="12" fill="#7a7a7a"/><rect x="26" y="142" width="8" height="8" fill="#7a7a7a"/><rect x="90" y="145" width="30" height="10" fill="#888"/><rect x="86" y="147" width="8" height="8" fill="#888"/><rect x="200" y="118" width="26" height="16" fill="#b5895a"/><rect x="222" y="110" width="12" height="12" fill="#b5895a"/><rect x="204" y="134" width="5" height="10" fill="#8a6a3a"/><rect x="218" y="134" width="5" height="10" fill="#8a6a3a"/><rect x="248" y="120" width="24" height="14" fill="#caa06a"/><rect x="268" y="113" width="11" height="11" fill="#caa06a"/><rect x="0" y="170" width="300" height="30" fill="#0b0906" opacity="0.80"/><text x="10" y="190" fill="#e8b647" font-size="13" font-weight="bold">#5 · Pestilence — Dever</text><text x="290" y="190" fill="#f4d489" font-size="14" text-anchor="end" direction="rtl">דֶּבֶר</text></svg>