<svg xmlns="http://www.w3.org/2000/svg" viewBox="0 0 300 200" shape-rendering="crispEdges" font-family="Trebuchet MS, Segoe UI, sans-serif"><defs><linearGradient id="g" x1="0" y1="0" x2="0" y2="1"><stop offset="0" stop-color="#5a4a5e"/><stop offset="1" stop-color="#2f2630"/></linearGradient></defs><rect x="0" y="0" width="300" height="150" fill="url(#g)"/><rect x="0" y="150" width="300" height="50" fill="#3a2f3a"/><rect x="120" y="20" width="7" height="7" fill="#444" opacity="0.7"/><rect x="129" y="27" width="7" height="7" fill="#444" opacity="0.7"/><rect x="138" y="34" width="7" height="7" fill="#444" opacity="0.7"/><rect x="147" y="41" width="7" height="7" fill="#444" opacity="0.7"/><rect x="156" y="48" width="7" height="7" fill="#444" opacity="0.7"/><rect x="165" y="25" width="7" height="7" fill="#444" opacity="0.7"/><rect x="174" y="32" width="7" height="7" fill="#444" opacity="0.7"/><rect x="123" y="39" width="7" height="7" fill="#444" opacity="0.7"/><rect x="132" y="46" width="7" height="7" fill="#444" opacity="0.7"/><rect x="141" y="23" width="7" height="7" fill="#444" opacity="0.7"/><rect x="60" y="110" width="14" height="22" fill="#8a6a4a"/><rect x="63" y="98" width="9" height="12" fill="#caa06a"/><rect x="62" y="112" width="3" height="3" fill="#9a2f2f"/><rect x="66" y="117" width="3" height="3" fill="#9a2f2f"/><rect x="70" y="122" width="3" height="3" fill="#9a2f2f"/><rect x="64" y="127" width="3" height="3" fill="#9a2f2f"/><rect x="68" y="114" width="3" height="3" fill="#9a2f2f"/><rect x="62" y="119" width="3" height="3" fill="#9a2f2f"/><rect x="180" y="115" width="14" height="22" fill="#7a5a3a"/><rect x="183" y="103" width="9" height="12" fill="#caa06a"/><rect x="182" y="117" width="3" height="3" fill="#9a2f2f"/><rect x="186" y="122" width="3" height="3" fill="#9a2f2f"/><rect x="190" y="127" width="3" height="3" fill="#9a2f2f"/><rect x="184" y="132" width="3" height="3" fill="#9a2f2f"/><rect x="188" y="119" width="3" height="3" fill="#9a2f2f"/><rect x="182" y="124" width="3" height="3" fill="#9a2f2f"/><rect x="0" y="170" width="300" height="30" fill="#0b0906" opacity="0.80"/><text x="10" y="190" fill="#e8b647" font-size="13" font-weight="bold">#6 · Boils — Shechin</text><text x="290" y="190" fill="#f4d489" font-size="14" text-anchor="end" direction="rtl">שְׁחִין</text></svg>