<svg xmlns="http://www.w3.org/2000/svg" viewBox="0 0 300 200" shape-rendering="crispEdges" font-family="Trebuchet MS, Segoe UI, sans-serif"><defs><linearGradient id="g" x1="0" y1="0" x2="0" y2="1"><stop offset="0" stop-color="#3a4452"/><stop offset="1" stop-color="#5a6a72"/></linearGradient></defs><rect x="0" y="0" width="300" height="160" fill="url(#g)"/><rect x="0" y="160" width="300" height="40" fill="#aebfc7"/><rect x="20" y="30" width="12" height="12" fill="#dfeef5"/><rect x="24" y="34" width="4" height="4" fill="#ff7a1f"/><rect x="54" y="83" width="12" height="12" fill="#dfeef5"/><rect x="58" y="87" width="4" height="4" fill="#ff7a1f"/><rect x="88" y="136" width="12" height="12" fill="#dfeef5"/><rect x="92" y="140" width="4" height="4" fill="#ff7a1f"/><rect x="122" y="79" width="12" height="12" fill="#dfeef5"/><rect x="126" y="83" width="4" height="4" fill="#ff7a1f"/><rect x="156" y="132" width="12" height="12" fill="#dfeef5"/><rect x="160" y="136" width="4" height="4" fill="#ff7a1f"/><rect x="190" y="75" width="12" height="12" fill="#dfeef5"/><rect x="194" y="79" width="4" height="4" fill="#ff7a1f"/><rect x="224" y="128" width="12" height="12" fill="#dfeef5"/><rect x="228" y="132" width="4" height="4" fill="#ff7a1f"/><rect x="258" y="71" width="12" height="12" fill="#dfeef5"/><rect x="262" y="75" width="4" height="4" fill="#ff7a1f"/><rect x="292" y="124" width="12" height="12" fill="#dfeef5"/><rect x="296" y="128" width="4" height="4" fill="#ff7a1f"/><rect x="0" y="170" width="300" height="30" fill="#0b0906" opacity="0.80"/><text x="10" y="190" fill="#e8b647" font-size="13" font-weight="bold">#7 · Hail — Barad</text><text x="290" y="190" fill="#f4d489" font-size="14" text-anchor="end" direction="rtl">בָּרָד</text></svg>