<svg xmlns="http://www.w3.org/2000/svg" viewBox="0 0 300 200" shape-rendering="crispEdges" font-family="Trebuchet MS, Segoe UI, sans-serif"><defs><linearGradient id="g" x1="0" y1="0" x2="0" y2="1"><stop offset="0" stop-color="#0a0e22"/><stop offset="1" stop-color="#1a1f3a"/></linearGradient></defs><rect x="0" y="0" width="300" height="160" fill="url(#g)"/><rect x="0" y="160" width="300" height="40" fill="#0b1020"/><rect x="250" y="24" width="22" height="22" fill="#e8e0c0"/><rect x="30" y="110" width="44" height="50" fill="#1c2440"/><rect x="26" y="104" width="52" height="8" fill="#141a30"/><rect x="46" y="130" width="12" height="30" fill="#0a0c18"/><rect x="44" y="128" width="3" height="24" fill="#8a1f1f"/><rect x="57" y="128" width="3" height="24" fill="#8a1f1f"/><rect x="44" y="126" width="16" height="3" fill="#8a1f1f"/><rect x="110" y="110" width="44" height="50" fill="#1c2440"/><rect x="106" y="104" width="52" height="8" fill="#141a30"/><rect x="126" y="130" width="12" height="30" fill="#0a0c18"/><rect x="124" y="128" width="3" height="24" fill="#8a1f1f"/><rect x="137" y="128" width="3" height="24" fill="#8a1f1f"/><rect x="124" y="126" width="16" height="3" fill="#8a1f1f"/><rect x="195" y="110" width="44" height="50" fill="#caa03a"/><rect x="191" y="104" width="52" height="8" fill="#a8842a"/><rect x="211" y="130" width="12" height="30" fill="#7a5410"/><rect x="209" y="128" width="3" height="24" fill="#8a1f1f"/><rect x="222" y="128" width="3" height="24" fill="#8a1f1f"/><rect x="209" y="126" width="16" height="3" fill="#8a1f1f"/><rect x="201" y="118" width="32" height="10" fill="#ffe9a8" opacity="0.6"/><rect x="0" y="170" width="300" height="30" fill="#0b0906" opacity="0.80"/><text x="10" y="190" fill="#e8b647" font-size="13" font-weight="bold">#10 · Firstborn — Makat Bechorot</text><text x="290" y="190" fill="#f4d489" font-size="14" text-anchor="end" direction="rtl">מַכַּת בְּכוֹרוֹת</text></svg>